<?xml version="1.0" encoding="iso-8859-1"?>
<!-- Generator: Adobe Illustrator 19.0.0, SVG Export Plug-In . SVG Version: 6.00 Build 0)  -->
<svg version="1.1" id="Layer_1" xmlns="http://www.w3.org/2000/svg" xmlns:xlink="http://www.w3.org/1999/xlink" x="0px" y="0px"
	 viewBox="0 0 461.676 461.676" style="enable-background:new 0 0 461.676 461.676;" xml:space="preserve">
<g>
	<path style="fill:#FFFFFF;" d="M181.583,122.29c-27.9,14.75-48.45,41.62-54.58,73.55h42.41
		C170.733,169.24,174.713,143.49,181.583,122.29z"/>
	<path style="fill:#FFFFFF;" d="M181.583,309.39c-6.87-21.21-10.85-46.96-12.17-73.55h-42.41
		C133.133,267.77,153.683,294.64,181.583,309.39z"/>
	<path style="fill:#FFFFFF;" d="M209.483,195.84h42.7c-1.15-20.39-4.06-39.55-8.47-55.33c-4.68-16.77-9.86-25.36-12.88-28.91
		c-3.01,3.55-8.19,12.14-12.88,28.91C213.553,156.29,210.643,175.45,209.483,195.84z"/>
	<path style="fill:#FFFFFF;" d="M217.953,291.17c4.69,16.76,9.87,25.36,12.88,28.91c3.02-3.55,8.2-12.15,12.88-28.91
		c4.41-15.78,7.32-34.94,8.47-55.33h-42.7C210.643,256.23,213.553,275.39,217.953,291.17z"/>
	<path style="fill:#FFFFFF;" d="M292.263,235.84c-1.32,26.59-5.3,52.34-12.18,73.55c27.91-14.75,48.45-41.62,54.59-73.55H292.263z"
		/>
	<path style="fill:#FFFFFF;" d="M280.083,122.29c6.88,21.2,10.86,46.95,12.18,73.55h42.41
		C328.533,163.91,307.993,137.04,280.083,122.29z"/>
	<path style="fill:#004FAC;" d="M230.833,70.1v41.5c3.02,3.55,8.2,12.14,12.88,28.91c4.41,15.78,7.32,34.94,8.47,55.33h-21.35v40
		h21.35c-1.15,20.39-4.06,39.55-8.47,55.33c-4.68,16.76-9.86,25.36-12.88,28.91v41.5c80.37,0,145.75-65.38,145.75-145.74
		S311.203,70.1,230.833,70.1z M280.083,309.39c6.88-21.21,10.86-46.96,12.18-73.55h42.41
		C328.533,267.77,307.993,294.64,280.083,309.39z M292.263,195.84c-1.32-26.6-5.3-52.35-12.18-73.55
		c27.91,14.75,48.45,41.62,54.59,73.55H292.263z"/>
	<path style="fill:#006DF0;" d="M230.833,320.08c-3.01-3.55-8.19-12.15-12.88-28.91c-4.4-15.78-7.31-34.94-8.47-55.33h21.35v-40
		h-21.35c1.16-20.39,4.07-39.55,8.47-55.33c4.69-16.77,9.87-25.36,12.88-28.91V70.1c-80.36,0-145.74,65.38-145.74,145.74
		s65.38,145.74,145.74,145.74V320.08z M169.413,235.84c1.32,26.59,5.3,52.34,12.17,73.55c-27.9-14.75-48.45-41.62-54.58-73.55
		H169.413z M127.003,195.84c6.13-31.93,26.68-58.8,54.58-73.55c-6.87,21.2-10.85,46.95-12.17,73.55H127.003z"/>
	<path style="fill:#FFDA44;" d="M383.458,63.217C342.691,22.451,288.49,0,230.838,0S118.984,22.451,78.218,63.217
		C37.451,103.984,15,158.186,15,215.838s22.451,111.854,63.218,152.621s94.968,63.218,152.62,63.218v-40
		C133.881,391.676,55,312.795,55,215.838S133.881,40,230.838,40s175.838,78.88,175.838,175.838h40
		C446.676,158.186,424.225,103.984,383.458,63.217z"/>
	<path style="fill:#C6C5CA;" d="M308.462,361.676v100c27.57,0,50-22.43,50-50S336.032,361.676,308.462,361.676z"/>
	<path style="fill:#D8D7DA;" d="M258.462,411.676c0,27.57,22.43,50,50,50v-100C280.892,361.676,258.462,384.105,258.462,411.676z"/>
</g>
<g>
</g>
<g>
</g>
<g>
</g>
<g>
</g>
<g>
</g>
<g>
</g>
<g>
</g>
<g>
</g>
<g>
</g>
<g>
</g>
<g>
</g>
<g>
</g>
<g>
</g>
<g>
</g>
<g>
</g>
</svg>
